<svg xmlns="http://www.w3.org/2000/svg" viewBox="0 0 260 357.7"><defs><style>.cls-1{fill:none;stroke:#000;stroke-miterlimit:10;stroke-width:10px;}.cls-2{font-size:40px;fill:#201d1e;font-family:Muli-Regular, Muli;}</style></defs><title>Asset 6</title><g id="Layer_2" data-name="Layer 2"><g id="Layer_1-2" data-name="Layer 1"><path class="cls-1" d="M255,305H5V92.71c0-18.62,12.65-35,31-40.12L200.4,6.64C227.75-1,255,19,255,46.76Z"/><line class="cls-1" x1="58.51" y1="42.85" x2="58.51" y2="16.65"/><text class="cls-2" transform="translate(13.33 346.78)">BROVATION</text><path d="M126.09,185.52a20.27,20.27,0,0,1,3.91,12.7q0,10.69-7.13,16.51t-20.12,5.8h-34V138.65h32.88q12.54,0,19.5,5.58T128,160a19.05,19.05,0,0,1-3.39,11.33,19.87,19.87,0,0,1-9.48,7.07A20.1,20.1,0,0,1,126.09,185.52Z"/><path d="M143.25,208.57l28.65-66.73a5.27,5.27,0,0,1,4.84-3.19h17.18l-35.77,81.88H139Z"/></g></g></svg>